<mxfile host="65bd71144e">
    <diagram id="3RXLMogN5MTj84UqejJ0" name="Page-1">
        <mxGraphModel dx="875" dy="776" grid="1" gridSize="10" guides="1" tooltips="1" connect="1" arrows="1" fold="1" page="1" pageScale="1" pageWidth="1100" pageHeight="850" background="none" math="0" shadow="0">
            <root>
                <mxCell id="0"/>
                <mxCell id="1" parent="0"/>
                <mxCell id="7" value="Log-in Diagram" style="swimlane;childLayout=stackLayout;resizeParent=1;resizeParentMax=0;horizontal=1;startSize=20;horizontalStack=0;html=1;" vertex="1" parent="1">
                    <mxGeometry x="110" y="260" width="770.53" height="380" as="geometry"/>
                </mxCell>
                <mxCell id="8" value="Server" style="swimlane;startSize=20;horizontal=0;html=1;" vertex="1" parent="7">
                    <mxGeometry y="20" width="770.53" height="120" as="geometry"/>
                </mxCell>
                <mxCell id="21" style="edgeStyle=none;html=1;" edge="1" parent="8" source="16" target="19">
                    <mxGeometry relative="1" as="geometry"/>
                </mxCell>
                <mxCell id="16" value="Authentication" style="rounded=1;whiteSpace=wrap;html=1;" vertex="1" parent="8">
                    <mxGeometry x="154.84" y="30" width="120" height="60" as="geometry"/>
                </mxCell>
                <mxCell id="19" value="Add New User" style="rounded=1;whiteSpace=wrap;html=1;" vertex="1" parent="8">
                    <mxGeometry x="320" y="30" width="120" height="60" as="geometry"/>
                </mxCell>
                <mxCell id="9" value="Core" style="swimlane;startSize=20;horizontal=0;html=1;" vertex="1" parent="7">
                    <mxGeometry y="140" width="770.53" height="120" as="geometry"/>
                </mxCell>
                <mxCell id="10" value="Phone" style="swimlane;startSize=20;horizontal=0;html=1;" vertex="1" parent="7">
                    <mxGeometry y="260" width="770.53" height="120" as="geometry"/>
                </mxCell>
                <mxCell id="14" style="edgeStyle=none;html=1;" edge="1" parent="10" source="11" target="13">
                    <mxGeometry relative="1" as="geometry"/>
                </mxCell>
                <mxCell id="11" value="Phone" style="strokeColor=#dddddd;shadow=1;strokeWidth=1;rounded=1;absoluteArcSize=1;arcSize=2;labelPosition=center;verticalLabelPosition=middle;align=center;verticalAlign=bottom;spacingLeft=0;fontColor=#999999;fontSize=12;whiteSpace=wrap;spacingBottom=2;" vertex="1" parent="10">
                    <mxGeometry x="40" y="18" width="70" height="85" as="geometry"/>
                </mxCell>
                <mxCell id="12" value="" style="sketch=0;dashed=0;connectable=0;html=1;fillColor=#757575;strokeColor=none;shape=mxgraph.gcp2.phone;part=1;" vertex="1" parent="11">
                    <mxGeometry x="0.5" width="32" height="50" relative="1" as="geometry">
                        <mxPoint x="-16" y="10" as="offset"/>
                    </mxGeometry>
                </mxCell>
                <mxCell id="13" value="" style="shape=image;verticalLabelPosition=bottom;labelBackgroundColor=default;verticalAlign=top;aspect=fixed;imageAspect=0;image=data:image/png,iVBORw0KGgoAAAANSUhEUgAABAAAAAEECAMAAACBarYAAAAAY1BMVEVWiuzy8vLf39+Aod7t7e3W1tbm5ubOzs5mrGlYpVykzqe5wdDR0tTb2trwu6TkfW3aUUDxvkZ/t4D4+Pj29fXG1vSWt/RwnO+BqPBfke5Phuysxvfq8f3X5Pv+/v76+/v////STVySAAAACXBIWXMAAAsTAAALEwEAmpwYAAAgAElEQVR4nO2di2KiuhqFo7V2pmfs7CnlVhB8/6c8JPkTcgOxahBZn93dnRYhxGRl5c8FdgIArBY2dwIAAPPB5k4AAGA+2NwJAADMB5s7AQCA+WBzJwAAMB9s7gQAAOaDzZ0AAMB8sLkTAACYDzZ3AgAA88EmHtcAABbAPQRg7nsCAEznSgGYO/kAgJszWQDmTigA4A5MFIC5kwkAuAtTBGDuNAIA7sYZAQi8o8ULL7wW+zovAixc//UJ5r4DvPDC68cv9cOwArBA9e/fDgBYNE1AA0ICYFZ+1HwAnglpBYIKwKz6Lz2/JgEALJleAhpDAgYFoBFSgcoPwPOgTUDIAjCj/re6+lvv/wIALIwzEmALgBEAELW/PqYAgCfhWCdGT8BWAGa2/7L+f6VZDgB4GrJUSkAgDNALAPn/5OtYlN8AgOehSL/IBAwJAMX/kzapK9R/AJ4KltUyFKA9gCEA2gDI4N+xYPwt5dy25UpKNnemA/AwFEcdDGwtBWAnw/+LmL8UgLxKj0smrXIoAABEfvwiBXD6AKyxDcCXFIC8qi/dW+ixaOsqnzvTAXgQWCcAX0ELwKzxv67+b1IuANnC63/XsakLWAAAJPlxoxTAHghgTvu/2Wx5xUnbmevv9bQIZgJAFOnmq/cAQwLwxQVAOIB06QagAwIAAJGnG88CiFrC1BigMgAQAACejpd0JxXAiAKIWsIsA7DZ7HZHCAAAT0bOBUApgOsA5AxAJQCvnQAwCAAAT0QnAIYFkNOBRC3RDkDV/x26AAA8G1wAuAKYUQBRSxitAtIGAA4AgKfjhQTgy5wQzGsJ0wYg4RHA3W4PBwDAs5Gne6sPYAoAjQGQARACAAcAwDPxwgVA9QHMFUHMGQPYwwEA8HTkSgDcPgCNAvQhgP0fOAAAnozOAZh9AM8BJHAAADwvuSMAIQcgDQAcAABPh+0AmtZ3AMoAwAEA8HRIB7DruwCtIQDWIMAWDgCAZ4MLwL4XAMsByCcBwAEA8LQoB7BRXQA4AADWw4slAL4DQAwAgCdGdQE2Z2IAezgAAJ6PF1sAEAMAYE3AAQCwYs45ACEAOzgAAJ4S1wFYMwHhAAB4bvIpDgAxAACeE8QAAFgx+Z8tHAAAa8URADgAANYEHAAAK8Z1ABgFAGBFTHIAmAcAwHOCGAAAKwYxAABWDBwAACsGDgCAFYNRAABWDBwAACsGMQAAVgzmAQCwYuAAAFgxiAEAsGIwCgDAioEDAGDFIAYAwIqBAwBgxcABALBiMA8AgBWDUQAAVgxiAACsGMQAAFgxcAAArBg4AABWDBwAACsGowAArBjMAwBgxSAGAMCKQQwAgBUDBwDAinkoB9Ak4lqbTXJXmYEAAEA8yihAu9lvDx+cv+L7x3a/ae90LQgAAMRDOIB219X9v5z/JOLnj4/Drr3D1SAAACgeIAbwte1q/38hOg3Yft3+ghAAAIjZ5wEkh4+/4epPGnB7CYAAAEDM7ACS7UDjb0rA/sYdAQgAAMSsMYB2f7b6SwnY3FR2IAAAEDOOAjSbSdWfK8Dfwy37ARAAAIj5HMDE5v8OJgACAAAxWwxgQu/fVoDdzRRgNgFgrCxLxma6+ipBjp9hLgeQHC6p/kIBbtYLmEUAyjwviiyrsqzI8zyUAlbyP5RxSmvUi110XXlEfnXK+Gny8RyPzly5PsJMDuDi+v/ff0sWgLIrienxeKw53f/Trkx6icirNK3S6vqiP4WCLhbjWoHrOjdv3nJeVdenjPEMd3N8/no3V66PMM88gPYH9f92g4GxBYDlXe2v+cRmytymrbsS6RbIrDumTY5FjHLKsrrtrhbnYvZ1k+66tVUFWFEY/y6OvCDWxRVXKfOs4hne5TWV53COx0bn+rzJsJhnFGA7Z/2PLQBlkdb+soakTgsrHV3p4BlfZ1EEoKq7NDRxLmZeNxPXTUwB4PJopKPojujy4eeVhHVWqq6bk5nl/Oe2nlsCZK6frhK3WzNLDGA/a/2PLABldgwubuwaezshnQCc4gpApIuZ1xUCcDIEQMhj7QjA6QoBECcMfu6dDYjUwRpK2uMLQJQYwO5jpKr/DU0Mvu1kwKgC0NX/obR35d5MScUFIFajPKsDOLVaAHIhjzcUgJH87voDdRq702MCByBIhsb//tJKYL4m+O/96n9UAWDZUeVYw6NR6bHu+wPt0VSAVTqA4uje9HUCUAoZpQznHf+0So+9BesUYEYPAAcgCAcAu9p/2H0lIkT2tdkfDJX4u7/tAoSYAlCmUrua9lhlRVHIsUBdSI0oHMtW4wCa3gH4qneVABj1PxEZnpd8/DWrtC2oZ5wGBgfA2QQ7AB8fu6SR5+bfu4vvlAQsejGQbPFOzbHrfYpCzjrKQpXTxkgLHyNKIw0DMnWxCNeyoOvqu76tAGi/1dTHrBDj7UxkeZfjSgKii17PEhzA/UcBQh2A8ExfOVf448btf1QBKGV+NZbX59kuC35XUPvCIGaJ5LEmAuURLzZy3ZsKACtUf+vo6SgryIud0tmG4RfrAG45DyAwAvD3Y5sEj/06/L39YuCoApDL0lxn7iWVV21XvjDhpgKQq/6Wq7fWX+ezAEtwAHePAfgGYHiaf9Ns71D/YwqA7AE0gUZHFcf52qOH4JYCwMhWnYL1XwUcZ8zyxTqAG8YAdh//vPo/Mse3ucfGoBEFoBLWJtTMUzz8VE8pjWzi/HGx9OXSNN7xPOc5KwBs+mKevokPf8A6y4NDgWzKTU87aOiYUQcQL88t4jqAptn/+/fvr1P/x95wzdWGiCkAokgmoStSe5To0lCKGIAXAyzFwEHGI9rsm9a46IUERtyAiQMrfeA4Tl/cPE+/aOlMgbSTYv7OTgAzbsy8Lv9Z9oTqqv+tIQAlJaUIrJwIUJABGPp8mVSIpvH6AKy/0vClKINlDg8e1B1T9Elm9qc1JAClzvNpd3pDIjuAr49/jgLceLefKUQUANkmBTv6XWnkWdyXhuAoQFnwcWy5okXMZBVHVaoNKzMVzM+LSi99qc5PeXVGAXIVnGd8Gj1d79x5xLVTu7ml81ptrDx5Whp/1z/L2Hx77FOjBUAsoVC3XhVnPzRqXwcaeI6ahuR8HP09y1wOXoofpJMzdFDpJlneusqiAQfQf8bDl78bkUcBuAGwFODWY/xTiN4FCMUAutLIy3xljIgdOzmw1+ewXCxqkUaoSequKFV8PYm2FHlad/+ui7JIj3z6u/zy1hkELl5bF8uP/LTHnM+jTcQSmpMYSxutd+La9uqlrkXn57UH28W1EtHXYcbP4vc09MubGlokowSg0zZ966e29uP6LqoHMPLxdq6r9sSkq7S1Xjl0apPgpUpazyVzpuXp8XUmt5PcCXbBs7VO6XpBB8BHKOnM/PJT7vSWxHUA0gBwVP0/hOP/dyV6EDA8+4R3+srRETHmTGvno9vSxWoBoIl0znoDfuDoTbozAWlCXtGJUGOeaPQ8sn9jBdWpX9OkxrtKqYJHEgD+c6J+ti9mCkBW1VZSzs7iZdQDaEcOK7mDz0vHszhLtZrW008uxE40itdv5h5kJ7nTQZnNSv9DDqDMjrV/+XgKEDcGkGgBIBMwQwcg8jAgzQMIq7r1O28tAG+OnexpavEbVwBSb/57cxwf7HJmApIAeNc7jSxPZrKqmnOZvnUc3rA8Mo0y1821AComp7EE4OglpR2fxUs6Y13aS7IfaPPz+OTO0Z52EMsr76Bafi5KAAIOoOynivefXZfp0Ypo3HkAu3//LAX4u73Lo3/OEFEAmBqZ7tqLc7LuOgBW6Fanq/fUwssWxhGAVpW8pm+AmtHqEnYAbaLPozOrHR40K2XZNQ6g07phfaFZ4jeuA7CwBKD1kzI+i5d05sJPN0+VBe1a3lrff2vpZ3eQXr7RH+SIbK5FouuCKePWWDnkO4Ay06LBr69uOuJGDTEdgBwD6BXg7zwGIOpUYCrOfCEan5s+Elf31gKoZQRdw1xlWVaZrZAtAHTYseoMrj4qGbUAQQdAkxNT6zwjMTXZHTEqu+qGm3E2EgXZwbdWA+adIZf1r+0umVWyQS16WeBJ4ceopIxWC8qK9qJpPqrWiqUaZiY3hpFQ3uLkH2Qs5ajsM5mf1rADUO1/Kz/jfpVItLkKUWMAfQiAJOAwhwGIuxio94WNCEBVxdC4tuMAmF5GIGPxLO8Xuja+AHRtFo8nsK7fQMV1rAyFHcBJWhVxnv5qw9mlgur6fvrT9EEAEgV5Fm81oLppY0mEEoCmrsSAZp+U0cqtJl1eMstG19q6opUD+lrGHagPwj/IsEcq+kFbDrAy623DoAMo5Hl4fIOGclVnI9oM0aijAK4AhAwAd0LnuNI2RJ196/YMxQrVIjTnw4kB5CqepluZstAK4AmAsdWFaoZH28ugAxBbFOjzqMnzw53q/CgTow4wTH1/cVkxqe5OXw1o7pag5/iPfXIUkbhovy1Va43ePFMC6n0QZpdf1VOdRurrGQexvk8w5ABIEBpznxJVXmJNF4zrAP45AhAYAqjFbIwxskDc5CLiTr/3Y0PCCWTejA+nLlSqQJujAmqxmysAViSOIo9jfYAhB2B2s1VYfbgoUqnXSSwr7ej6mpHVxjGDDsAXANMVqNjCSIBPic8l3pkMQGNNHVSrhvTYraqlVsgvdw4qHEEwjhl2AGoumLUok6ISTaRSGjUG4ApAaA6AKAtsBKNz/EPiCgA3jL5nqbtOny0BTgyAHf0S1QfZXAGw2j3VGo0Z5gEHkNpFUc7SGRaALCQjjTVOIT8sVVG8HYEGBcAaSaT7bEaaRZU17gpnVub9S32ptj0NTdRUSwoo+FGqyVz2RqaZ+nzkuarAQczNVccB0D+diJ9619hoxg2J6QDsGGBHaBHAhLVaOijzQ2IvwBNTPfzBHnePSrsuUJF3GjQKvHsOwLolqmVjAjDgAOxOtnKow7WOvIa6umwGa2voi8YpSMemOwB7OJ9q4XBAUrsP98Mt+Sbj7hflu7x4c3TGS0pVm8s+axq3Q2UfRA2jc1DpLPhyHADpj1viqXgncQYCYjqAxBWA0CrACQKg28EfEn0Fbikme/oD2/aMDzsGQJ1lN61OMQ+HvtVcmosdgLMyKTuzMI9RCacCXsrjK9Pz032omjs5BtDYSTlfKcqBeYC5mF/ZfwnMgIQfbyML0B5LnVOnNg332OjeZTTEm/FZ2N0SxwEMNPXq8nGKacx5AK4DCC4DmiIA7gDyhcywBJ8vJOEaYO8PbM9us+tCuHX4dibfkAA41jg/KwADDsApi0pIBk+jmzRxGtmi1YWoDIkcG2CVPRVmsgNIXVvOfzkyy48u5MUA8kBZIW9EjbhvK3IzNwLzHeW9m43+gJQ4MyUcB0AGxJMW5TnmEID7jgK4gwAhJz+lC7A8AfiWa+L4ehJr4mnbK4ATA0ip6Di5UR6tW8iDFbek7vDFDsApi+eX5kvTTy2qTMwxT40ggKwCumZMjgE0Xr/8dBodB1S2cJIAVIZgBRZkS2WQtqV0Ap09pkRX7owIdYwlALYD0GFLN8pdkQBECQJEHQW4kQAs0AEQJX9GmNUbaM3hZqMusGCNVL93HYAbKfipAwgLwLADsKf5ysMrsuupsbbPndwwwQHYiadzjwkAFQp3GDAkAHTy4ZZW3oFIFS0hDtRGOkjc+5BK2P7HdgCUTw1fXWjThvpjdyLqKIDbBViVA1AwERHQEtAbUCsGUB7D9vA7nSwAzcUOwB16Ou8AqEiL6iF/7ux10fcLmCkG35fEAEIC0IzNBCp+KAC+yKp+v0gVTZIOqARpmRSAgTbbvn3bAeTUaeH1rGkNaLr3LAIQeRQgcNBTOwBKP+PzxPQsEZUaqy7k1wvA5Q5gQABGHAAdInY1USEARrZfjOc6553uAOx6fN4BqJruxglZZaIihVIABvrgOlU82cXQB2H1+9PQx/CtlCTsAPQ0gYEq9XwO4FajAMt2AISeH1T38THDAVDDM00AnOLJ4jkARgokzLK4oa6ws37yb25f5oJ5AJcLAI2QuoeIVdeKzJRGCmD4ecw8AQjZhCkCkFkCwMICMMDImOcNmdMBBDf8fiYBoJ2mwsvy1HwTHdkOOIBAUsMOwD4sogPoO/zk7vmuQjT5r7tvuwLc1QGUU7b8tAVgpHGf7ACMLkBg7s4UB9AOMIsA3HcUYOM4gI+fTgRaiADwXbqO9XHgemqinfpzIAYQaHhCQUC3eMZzAHoyYE7h8kR6AXXy1DntT58MNCEGoIYBxibR6y0MzgiAIY/5mRhAbcYAzgQBgw6gEQshQ6+nmwcwbS3AFAFYyFRg+cDvUAmjP/PU6Oph1QV/rb1kYBRgNgeg3llQZ0DUAR0EkIOWxkd6Rwdwdk9QeTkjZ86OAhTGKMCoSgyOAqSjowA007oMM3Uz5OuIuiNQ644DBvoAfA2oh50V5zpP54jnAAZqMWFPBAnOA/CKVB6aBzBfDEDHsqtSttGpHA+Q8/9lX62xH4AoCsI9BKBUC/JGVgxZY4y5XFzpH0+TiuTYRnrmoH4eQGA/8rF5ANR7umwDg5sTdR5AYgvA5+ebX5Nbf1j06DRw5i4YPyGaAKh5egMfcWFv7zVpJqDjGuZ3ALrDr0MAxgpAUS/MKNs9HYAKDY3Noc3MKVKDE4Fyo9Kz62YCisuFHQBzPkvjbRGfEBB3T0ArCvj56/d7YByA9kft8TpgRb0QAaDcSsIWwF2zE1gL4O9gHVwLMGMMoN9PVA4CmiHMOqP/uQJwlxiAsaZ58CjbAajVeF67nZl9g8qI9flXI7+R2zW9vzvr185aAL0WyTmz2Lp00tMdbkBUB9DsrOr/+/fn6yQzH5wW+nPiDQNSdQ1vratX24ZGAdSwttMHUGNdj+MA6DZaOap5NFcF0Mae1o4Gd3QAevelQDCuP8LMmYEaqIRB5saZg1JzNaDTBzizGrAIG0RWHOUTAp5vLUDTfFj1/3fQAng4cd1rVwNHFAC1tDW0y6vaDzI8D0ANptstjx7/eJwYANWE5tgaCVElvXUTd88YgHryj7+pr/67UgjKGbprtwbSxktqiZM6KNgP1fsBqAdAmKdSO34OOAAVtHB8Q67O9TijADd7LoAWgF+y/v/+9Xa+MrvF8toYYEQBYMMlUu8HHZ4JqHv7ZsHT73kkB0DpFvPXdY/F2NnT2st3yAEYx/xcAPodONrQNux5P/uSTkNxeMcxkEyoNp9mMzsHlfZBameE2tgRhOkd3AYcgN55xNnNYTxydGMiPx04set/1wk4uy9o406IuDYEEHMmoNreJqmdx9EUFZWOgbUAevzJ2GWuzAb2BJw1BmAIcm9f+jit/fENxADaaQJwJgZgbsFaO4/YKumpPScrZ1RdM1dlew9up7xpRw9SwZl+e7+y0PkytCOQ3r3RFHm1Uegj7Qh0s+cCyHGAT139OwtwthPg7gZ/7XYgUQVAT1kQu0UX6qGYmd4iyPB//q7A0q+SdpT8ETZ0Bw/lAFjfJdM3Y4iCVZA9B6BCaVnOKPJ9hQPQG+rx/BbbsNN+ynwJprEMW2uS6qT3jwLquwnuTodcAYYP0kNTtM9TqRX+NOgA+k2Ju9unX2mRH93Q7YZEdgD80SBm/edhgPFnAzh7seldaK4g5loAVRMaMcCZyiUp/Z4ARgnynwtASsefFcXXsZgPp3qgGEDf1TVytg/UJo6/dWIAakuj7hbdh4NatzRRAMzHczQqw1OxCYPOvDY1du5VfSrxIFRmrNM0n3ag7EzgIHOOI52KPq0pzwXQOlnznaJZyVsGKi+RDEDspwOfvj6c+s89wHCNto2X4OoeQNzFQIWjV2JuYOPX/0A8TK8X0h/KKfxkoHkdgLk3uX6//pTsDpznAGg0nQtk01oPB7XTO1UA7GdtNZR5Zv6be3DrDreU504p1JZN1virvplGHlT792s9AUJfs7GDgP6TgfoVgXRm9c9ojwaK/HTg0+n18/dvVwG2ycBZA0+EvN4AxBUAFnyunCSxYoPeswGNneUV9TE0EWjeGIDu5xjdfaNpdTbTdWIAzJzWLVJzTQxApKY4DhUnYabscGyvAKZONLW9va/25ZaY1HaksfT2f2+PNA9ABwpcAWB2+6CTcubJjjcktgM4fb3/8hTg8y1oApp25wdzrzcA0bcFr8Il0n0IbeDpwM5Dadu6eriZgH3KrfEsJQrOTCbPAfQPE1IfzJUOgB9b1WEJaN2NmL9lp9s92BtE8B7hKz8Mdzdh+yjeetkfT+DpwKH24eyznW9J7BjA6bR1+wC/f/3+fD9sXAnoqv/r+4s7J/LahUCcWbYFd0pZk7iF0YsB8N/RY+lFtyGRD5zn727v5QDc8RaR1rPPqFEP2DEyVgUBnCGcfvFg/5u+AqY3EYAuV0IZzj2+/zQWUQUtCRD57B7WiYql4uGD6INu6HKdQNgfT+DpwLyj54hL98Z4DweO7wBO7ZvXCeAm4P2wM3O43ezf3j9//fp0FMBsMH5K9A1BmNwSuE5k9rZtzUPUbmHsCiJf9+DUGPFW8QfxDkcAykr8zSmLpXzHSDeSZfbF8ir0jpzOc+7+KBWpWT2LNLSMg9FNGga7LHjW1ElN66bpou7enpTec0mhy8hcq6k8t/zkaTUwuZblXGVrcSh9Mv5xTIhKf5BvJcRRZZGlMqVyGNI2VoG7Fxkgtopt5ZlF9Y+2EmAOB3Da+52ATgE6CXg77LuEdOz229f3d+kUPl+sftb1EYDZtgXnz7mVVF0Z88tPGVr5KN5qrImk/fZ0kZJ/cUsM/XYkQc7FyuA72PnzDL6dBRdyhm6S8d2S+QOJ1aDdyPumf3JuhhdeJhmIcUJ9YPg4kcxzB+mEyqQye1sXNpDNfM94OnVWRK3+0ecBcJptSAG4C/h8V3x+6rlCnQnosyq7PgIw25ZgrFSFY9JiL79ac5yHcckTB6/2gwRec57QcQPvDbSvcgH8mTdeeks6w8uxyq+OVR/NpINC6h14p1wjZMdBwrkskxpzGSARfRSgI/FHAnoj8Kur+rY+GArQPx73GubfE3DKp1zxJ8Z7Lc3gLvVgVjLuC7xuQWb7tfPE/1jjxwBOA2GAEVQgQM/zuo75BWAC7Cg6hOElKJc8AhfEIE2S7uNyJq2VA5s6PBIzxAC6TsAm3AkY5JcIBPgDrT9jEQLwHazq9LjOOAvFwHSCGzjpLQOWIwBxHMDpdLECdN2AW9X/ZQhA6PHgarXbBZ4SxCH0eHC16+dDy/UsDuDEFeCyXsCvz5db1f9lCMC3WqqaqbgQUwtF4s0TBVNRzzTuJweVRSrGtQNPDHwkZnIAXS/gzZsQNMrn263q/0IEoFCLAfmIckehlrN7e1OA+VFPJeDD+DyY3y/r8TcTeyjmGAUQNMnrJd2Az7ElQxfy2J+IQi8GlOtE+iUo7vpI8Aj0iwHp06LZhe2D27UZ5gEQTbJ9n2oCfn2+jS8avohlCADvQuqVcka2+eujwAPgRqiUWj94/Z8tBiAyZzexG/D5fhhc4PUDFiIAwXWEfHuQxy5RK4VvEuJ7VGe91wMyVwxAlubNFBPw6z28WPDHLEQAxAoUp1mpjwNPGgRzw8SmY86n9fhqPacD4HAJGNWAz8/h7QJ+yFIEQK0TEd1JvoSIL2hZTNrXR6lWFcntiOrB5UePxKwOgMNdwKAN+PX5/r71Fgpfy3IEQBQqtU6kqkYXtID5MVYg8QVfS/i0ZhsF0DSnzf713fcBYm3Qn/3Nq/+yBIAWyuTlxCVEYF7UpzXDsp6fMbsDELSb/eGNi4Dm/f397bDbeJu13IJlCQBYGMuo+Iq5YwASsWnDZrfdHg6vnMN2v+mS05zucjUIAADEfPMAfLj6tMSd6r4AAgAA8RgOIC4QAACIx4gBxAUCAAAx/yhAfCAAABBwAACsGMQAAFgxcAAArBg4AABWzCPNA4gFBAAAAqMAAKwYxAAAWDGIAQCwYuAAAFgxcAAArBg4AABWDEYBAFgxmAcAwIpBDACAFYMYAAArBg4AgBUDBwDAisEoAAArBg4AgBWDGAAAKwbzAABYMXAAAKwYxAAAWDEYBQBgxcABALBiEAMAYMXAAQCwYuAAAFgxmAcAwIrBKAAAKwYxAABWDGIAAKwYOAAAVgwcAAArBg4AgBWDUQAAVgzmAQCwYhADAGDFIAYAwIqBAwBgxcABALBiMAoAwIqBAwBgxSAGAMCKwTwAAFYMHAAAKwYxAABWTJ7uMQoAwFp5sQUADgCANeE6AMQAAFgRcAAArJipDmAHBwDA85FPcQCYBwDAc8IFYKcFoGnPxAC+q3bu6ns1bQYBAEByaQygqBdvAY78PgAA364DOBsD+C6rhStAe4QBAEDxQgLwdcYB7MgBfJdFtWiyAvUfAEVuCYATA+j+lXQKQALwJyPrXLJyqbAS9h+AHukANkEHoCwACcAW0XMAnouy2loC0NgC4AwDZF0TCgB4FspMDwKEBKCxgwDb9H/Zy8tL8QIAeAKyKt2qQYDAasDWEYD99vDn7c+fP/8DACydrib/OWz3/ShgYoYAyAHIKKDqA3QcXl9f/7x2b30DACyRrva+cg6Hw3br9gBaQwDIAZgWoFOAQ6cBXDzeoAEALI8/UgFE9e8NgDkIcDIdgNUH2JMASAmQKrCYl7hxAFbO6x9q/mX7bwpAIx1ALwDKAmxUGJA8gNAArgKvC3r9eT2fOQA8Ma9k/qn6+wbAdQB2H4A6AUIBhAgcxAsAsAAO/UtXf17/Q4OAah6ArwBSApQIAAAWxlbUfln/ewNgDwIaDkAJgAoDSAnYkg6o16N/wwsvvLYHXXf3+779d+YBmwJgWgDtASwRAAAsCx7Lc+u/YQCcUQAhAL4C7EVIUL8e/RteeOFFX33rb9V/ywBoB9C4CmCLAABgcey66m+1/24EQAtAS3MBSAGUBOz26rVfghzs+v/wha8Vfpn/2O1VLd6Y9d+cB8wF4GRYAPOlWdsAAAGHSURBVFIAIQFaA3a7/kwPzn6n07rHd3xf5XeXjaz+TvvvCUBrKQBJwCZ4RgDAIthsVPU32//WqP+dAJzMToAjAT2dGGyWgkwrvuP72r7L/6ufiS9q/1uz/fcFQI8GJEoCPBEAACwKWY8T3fyr9t8SgJPdCyAJIA342tBL//T4X5RWfMf3tX3n/xf0PyZ99e/b/37LbyEAJ9sDaA0w+Eq+vN89KpTWrwTf8X1d30XZ//Iqa6vrv9P+KwEwPAApQEgEAACLo23d5t985IclAEoCehGACgCwSFoTWfu9CGAvAEYkkEcCLA0AACyYRr386t8LgBkG0BogdABSAMCyaOQ3t+YH6n8vAPZooDE3oGl1xwAvvPBawsv4warRXv03BMDqBdD7GxU3bFV8AF/4wtdDf5nhPKfyjwuAIwHdoXSO9sYpxBe+8HWnr0Y1/vJfLicXSwBcBQAAPA9e7fcEAEIAwDMSrObDAgAJAOB5GKz+wwIAEQDgGRip4OcEAADw5LC5EwAAmI//AyFEjbhnFh+PAAAAAElFTkSuQmCC;" vertex="1" parent="10">
                    <mxGeometry x="140" y="41.5" width="149.68" height="38" as="geometry"/>
                </mxCell>
                <mxCell id="17" style="edgeStyle=none;html=1;" edge="1" parent="7" source="13" target="16">
                    <mxGeometry relative="1" as="geometry"/>
                </mxCell>
            </root>
        </mxGraphModel>
    </diagram>
</mxfile>